<svg width="588" height="339" viewBox="0 0 588 339" fill="none" xmlns="http://www.w3.org/2000/svg">
<path d="M199.648 3.43874C156.13 15.2284 131.68 61.9384 155.569 87.6511C162.86 95.5102 174.525 100.677 196.731 106.177C229.259 114.261 237.222 120.774 230.829 134.361C224.436 147.946 219.836 148.62 138.521 148.62H-4.7163L-5 164.434L-4.61451 180.059L142.56 180.846C238.006 181.856 250.792 178.599 267.056 150.079C288.701 112.241 272.214 86.5281 218.266 73.5026C192.359 67.2154 184.954 57.8972 195.273 44.6463C207.611 28.9281 244.624 33.0821 244.624 50.1487C244.624 53.8538 246.755 54.3026 264.812 54.3026H285V45.2078C285 11.7487 243.725 -8.46152 199.648 3.43874Z" fill="#45927B"/>
<path d="M230.326 176.136C230.326 176.543 234.906 212.99 240.506 257.072C246.105 301.052 250.687 337.296 250.687 337.601C250.687 337.905 258.831 338.11 268.707 338.11H286.727L309.632 288.734C333.557 237.22 333.557 237.118 335.084 238.543C335.898 239.359 348.42 331.493 348.42 336.48C348.42 337.498 356.768 338.008 366.949 337.703L385.376 337.091L421.925 257.072C439.618 212.884 440.532 210.494 440.637 209.989C440.741 209.483 597.904 207.158 586.501 207.463L587.096 174.355L417.14 176.239L397.388 226.123C386.598 253.508 376.927 277.84 376.111 280.081C373.159 287.409 371.631 278.554 366.746 225.512L361.96 175.118L344.551 175.627L327.245 176.239L307.393 223.069C296.398 248.826 285.911 273.055 283.977 277.026L280.515 284.152L279.09 274.99C278.276 269.9 276.444 245.466 275.019 220.523L272.371 175.22H251.398C239.793 175.22 230.326 175.627 230.326 176.136Z" fill="#45927B"/>
</svg>
