<svg width="590" height="590" viewBox="0 0 590 590" fill="none" xmlns="http://www.w3.org/2000/svg"><g clip-path="url(#a)"><path d="M587 0H-3v590h590V0Z" fill="transparent"/><mask id="b" style="mask-type:luminance" maskUnits="userSpaceOnUse" x="0" y="0" width="590" height="590"><path d="M590 0H0v590h590V0Z" fill="#fff"/></mask><g mask="url(#b)"><mask id="c" style="mask-type:luminance" maskUnits="userSpaceOnUse" x="0" y="93" width="590" height="310"><path d="M590 93H0v310h590V93Z" fill="#fff"/></mask><g mask="url(#c)"><path d="M204.966 96.154c-43.586 10.811-68.074 53.648-44.148 77.228 7.303 7.207 18.985 11.945 41.226 16.989 32.578 7.414 40.554 13.387 34.151 25.847-6.403 12.458-11.01 13.077-92.451 13.077H.284L0 243.797l.386 14.329 147.403.722c95.594.926 108.4-2.06 124.689-28.215 21.679-34.701 5.166-58.281-48.865-70.226-25.948-5.766-33.364-14.311-23.029-26.463 12.357-14.415 49.427-10.606 49.427 5.046 0 3.398 2.135 3.809 20.22 3.809h20.219v-8.34c0-30.685-41.339-49.219-85.484-38.305Z" fill="url(#d)"/><path d="M235.196 254.631c0 .373 4.56 33.759 10.136 74.138 5.574 40.285 10.137 73.486 10.137 73.765 0 .279 8.108.466 17.941.466h17.942l22.806-45.228c23.821-47.188 23.821-47.281 25.342-45.976.81.747 13.277 85.143 13.277 89.711 0 .933 8.312 1.399 18.449 1.12l18.347-.56 36.39-73.298c17.617-40.477 18.527-42.666 18.631-43.129.104-.463 157.178-3.419 145.824-3.14V253l-169.219 1.725-19.666 45.695c-10.743 25.084-20.372 47.373-21.185 49.425-2.939 6.713-4.46-1.399-9.324-49.985l-4.766-46.161-17.333.466-17.231.56-19.766 42.897c-10.946 23.593-21.388 45.788-23.314 49.425l-3.447 6.527-1.419-8.392c-.81-4.662-2.634-27.044-4.053-49.892l-2.636-41.498h-20.882c-11.555 0-20.981.373-20.981.839Z" fill="url(#e)"/></g></g></g><defs><radialGradient id="d" cx="0" cy="0" r="1" gradientUnits="userSpaceOnUse" gradientTransform="matrix(-88.45775 -1.83594 4.65846 -224.45066 134.948 160.512)"><stop stop-color="#28283a"/><stop offset="1" stop-color="#03051a"/></radialGradient><radialGradient id="e" cx="0" cy="0" r="1" gradientUnits="userSpaceOnUse" gradientTransform="matrix(-108.1843 -1.65794 3.10902 -202.87018 400.238 314.009)"><stop stop-color="#28283a"/><stop offset="1" stop-color="#03051a"/></radialGradient><clipPath id="a"><path fill="#fff" d="M0 0h590v590H0z"/></clipPath></defs></svg>