<svg width="590" height="590" viewBox="0 0 590 590" fill="none" xmlns="http://www.w3.org/2000/svg">
<g clip-path="url(#clip0_27_19)">
<path d="M590 0H0V590H590V0Z" fill="#1E1E1E"/>
<mask id="mask0_27_19" style="mask-type:luminance" maskUnits="userSpaceOnUse" x="0" y="134" width="590" height="310">
<path d="M590 134H0V444H590V134Z" fill="white"/>
</mask>
<g mask="url(#mask0_27_19)">
<path d="M202.131 137.173C158.611 148.051 134.16 191.148 158.05 214.871C165.342 222.123 177.007 226.889 199.214 231.964C231.743 239.423 239.707 245.432 233.314 257.968C226.92 270.503 222.32 271.125 141.001 271.125H0.000149372L0 285.77L0.000149372 300.858H145.04C240.491 301.79 253.277 298.785 269.542 272.471C291.189 237.559 274.701 213.835 220.75 201.817C194.841 196.016 187.437 187.419 197.757 175.193C210.095 160.691 247.109 164.523 247.109 180.27C247.109 183.688 249.24 184.102 267.298 184.102H287.487V175.711C287.487 144.84 246.211 126.193 202.131 137.173Z" fill="white"/>
<path d="M233.396 296.621C233.396 296.991 237.979 330.154 243.583 370.264C249.185 410.281 253.771 443.26 253.771 443.537C253.771 443.814 261.92 444 271.803 444H289.835L312.756 399.073C336.698 352.2 336.698 352.107 338.226 353.404C339.04 354.146 351.571 437.979 351.571 442.517C351.571 443.444 359.925 443.907 370.113 443.63L388.552 443.073L425.126 370.264C442.832 330.057 443.747 327.882 443.851 327.423C443.955 326.963 601.823 325.247 590.412 325.524V295L420.338 296.714L400.573 342.104C389.776 367.021 380.098 389.161 379.281 391.2C376.327 397.868 374.798 389.81 369.91 341.547L365.12 295.694L347.699 296.157L330.381 296.714L310.515 339.324C299.514 362.76 289.019 384.807 287.083 388.42L283.619 394.904L282.193 386.567C281.379 381.936 279.546 359.704 278.119 337.008L275.47 295.787H254.483C242.869 295.787 233.396 296.157 233.396 296.621Z" fill="white"/>
</g>
</g>
<defs>
<clipPath id="clip0_27_19">
<rect width="590" height="590" fill="white"/>
</clipPath>
</defs>
</svg>
